<svg width="30" height="40" viewBox="0 0 30 40" fill="none" xmlns="http://www.w3.org/2000/svg">
<g clip-path="url(#clip0_128_712)">
<path d="M9.8927 30.9217C9.8927 30.9217 8.36263 31.809 10.9816 32.1092C14.1546 32.4702 15.7761 32.4185 19.2728 31.7585C19.2728 31.7585 20.1921 32.3333 21.4758 32.8312C13.6375 36.1812 3.73601 32.6371 9.8927 30.9217ZM8.93487 26.5502C8.93487 26.5502 7.21872 27.817 9.83972 28.0873C13.2291 28.436 15.9058 28.4645 20.5375 27.5751C20.5375 27.5751 21.1781 28.2228 22.1854 28.577C12.7083 31.3405 2.1526 28.7949 8.93487 26.5502Z" fill="#5382A1"/>
<path d="M17.0095 19.1347C18.941 21.352 16.5021 23.3474 16.5021 23.3474C16.5021 23.3474 21.4061 20.8229 19.1539 17.6615C17.0505 14.7135 15.4373 13.2486 24.1701 8.19815C24.1701 8.19815 10.4625 11.6121 17.0095 19.1347Z" fill="#E76F00"/>
<path d="M27.3764 34.1551C27.3764 34.1551 28.5087 35.0854 26.1293 35.8052C21.605 37.172 7.29825 37.5847 3.32387 35.8597C1.89524 35.24 4.57443 34.3799 5.41714 34.1993C6.29602 34.0092 6.79835 34.0447 6.79835 34.0447C5.2095 32.9286 -3.47126 36.2363 2.38899 37.1835C18.3706 39.768 31.5218 36.0198 27.3764 34.1551ZM10.6284 22.0208C10.6284 22.0208 3.35123 23.7445 8.05146 24.3703C10.036 24.6353 13.9922 24.5754 17.6773 24.2674C20.689 24.0142 23.7131 23.4755 23.7131 23.4755C23.7131 23.4755 22.6511 23.929 21.8829 24.4521C14.4929 26.3903 0.21677 25.4887 4.32668 23.5061C7.80244 21.8307 10.6284 22.0208 10.6284 22.0208ZM23.683 29.2973C31.1954 25.4046 27.722 21.6638 25.2976 22.1679C24.7034 22.2911 24.4385 22.3979 24.4385 22.3979C24.4385 22.3979 24.6591 22.0534 25.0804 21.9043C29.8765 20.2228 33.5651 26.8635 23.5321 29.4935C23.5321 29.4936 23.6484 29.3901 23.683 29.2973Z" fill="#5382A1"/>
<path d="M19.1539 0.0428898C19.1539 0.0428898 23.3144 4.19318 15.2079 10.5748C8.70752 15.6941 13.7256 18.6129 15.2053 21.9479C11.4108 18.534 8.62614 15.5287 10.4944 12.7317C13.2363 8.62566 20.8325 6.63514 19.1539 0.0428898Z" fill="#E76F00"/>
<path d="M11.3667 39.8457C18.5775 40.306 29.6505 39.5903 29.9128 36.1879C29.9128 36.1879 29.4087 37.4778 23.9534 38.5021C17.7988 39.657 10.208 39.5222 5.70581 38.782C5.70593 38.782 6.62735 39.5427 11.3667 39.8457Z" fill="#5382A1"/>
</g>
<defs>
<clipPath id="clip0_128_712">
<rect width="29.6833" height="40" fill="white" transform="translate(0.322037)"/>
</clipPath>
</defs>
</svg>
