<svg width="40" height="40" viewBox="0 0 40 40" fill="none" xmlns="http://www.w3.org/2000/svg">
<g clip-path="url(#clip0_128_709)">
<path d="M0 0H39.322V40H0V0Z" fill="#F0DB4F"/>
<path d="M36.1038 30.4601C35.8159 28.635 34.646 27.1027 31.181 25.673C29.9774 25.1103 28.6356 24.7073 28.2356 23.7795C28.0936 23.2395 28.0749 22.9354 28.1646 22.6084C28.4225 21.5475 29.6672 21.2167 30.654 21.5209C31.2894 21.7376 31.8912 22.2358 32.2538 23.0304C33.9508 21.9126 33.947 21.9202 35.1319 21.1521C34.6983 20.4677 34.4666 20.1521 34.1825 19.8594C33.1621 18.6997 31.7716 18.1027 29.5476 18.1483C29.1626 18.1978 28.7739 18.251 28.3889 18.3004C27.2788 18.5856 26.2209 19.1787 25.6004 19.9734C23.739 22.1217 24.2698 25.8821 26.5349 27.4297C28.7664 29.1331 32.0445 29.521 32.4631 31.1141C32.8705 33.0647 31.054 33.6958 29.2486 33.4715C27.9179 33.1902 27.1778 32.5019 26.3779 31.251C24.9052 32.1179 24.9052 32.1179 23.3914 33.0038C23.7502 33.8023 24.1277 34.1635 24.7296 34.8556C27.5778 37.7947 34.7058 37.6502 35.9842 33.2016C36.0365 33.0494 36.3804 32.0304 36.1038 30.4601ZM21.3767 18.384H17.6986C17.6986 21.616 17.6837 24.8251 17.6837 28.057C17.6837 30.1141 17.7884 32 17.4595 32.5779C16.9212 33.7148 15.527 33.5741 14.8916 33.3536C14.2449 33.0304 13.916 32.5703 13.5347 31.9202C13.4301 31.7338 13.3516 31.5894 13.3254 31.5779C12.3274 32.1977 11.3331 32.8213 10.3351 33.4411C10.8323 34.4791 11.5649 35.3802 12.5031 35.9657C13.9047 36.8213 15.7886 37.0836 17.7585 36.6235C19.0406 36.2433 20.1469 35.4563 20.7263 34.2586C21.5636 32.6882 21.3842 30.7871 21.3767 28.6844C21.3954 25.2548 21.3767 21.8251 21.3767 18.384Z" fill="#323330"/>
</g>
<defs>
<clipPath id="clip0_128_709">
<rect width="39.322" height="40" fill="white"/>
</clipPath>
</defs>
</svg>
