<svg width="38" height="40" viewBox="0 0 38 40" fill="none" xmlns="http://www.w3.org/2000/svg">
<g clip-path="url(#clip0_128_715)">
<path d="M34.7078 19.6913C34.7078 17.6141 33.0286 15.9301 30.9574 15.9301C30.824 15.9301 30.6927 15.9372 30.5631 15.951L35.7143 0.714285H13.8234L18.9674 15.9376C18.8915 15.9329 18.8155 15.9304 18.7395 15.9302C16.6682 15.9302 14.989 17.6139 14.989 19.6914C14.989 21.3704 16.0863 22.792 17.6006 23.2757C16.8009 24.665 15.7944 25.9165 14.6517 26.9978C13.0978 28.4677 11.3195 29.5825 9.39623 30.2693C7.10628 29.0896 6.02498 26.4659 7.00064 24.1655C7.11085 23.9056 7.22335 23.6423 7.33085 23.3802C8.98977 22.9919 10.2261 21.5004 10.2261 19.7183C10.2261 17.641 8.54692 15.9571 6.47555 15.9571C4.40418 15.9571 2.72512 17.641 2.72512 19.7183C2.72512 20.9922 3.357 22.1174 4.32309 22.7977C3.39483 24.9173 2.03029 27.1356 1.60513 29.7066C1.09561 32.7878 1.60342 36.0585 4.2607 37.9056C10.4493 42.2071 17.1669 35.2389 24.2497 33.4872C26.8166 32.8525 29.6344 32.9547 31.8959 31.6412C33.5942 30.6547 34.714 29.0198 35.0316 27.1845C35.3457 25.3713 34.888 23.566 33.8355 22.1022C34.4002 21.4266 34.709 20.5728 34.7078 19.6913Z" fill="#99425B"/>
<path d="M34.2844 26.9561C34.009 28.5335 33.0291 29.9112 31.5962 30.7365C30.2604 31.5056 28.6597 31.7352 26.9648 31.9781C26.0569 32.1082 25.1181 32.243 24.201 32.4678C21.7759 33.0624 19.427 34.2224 17.1557 35.3441C12.6098 37.5891 8.68406 39.5276 4.98237 36.9768C2.27083 35.1085 2.39598 31.6515 2.71187 29.7572C3.00466 28.002 3.79623 26.3856 4.56157 24.8225C4.69196 24.5569 4.8213 24.2907 4.94959 24.024C5.33539 24.1774 5.7402 24.2783 6.15312 24.3242C5.37395 26.8808 6.59929 29.6606 9.171 30.9742L9.52309 31.154L9.89571 31.0221C11.9289 30.3021 13.8024 29.147 15.4641 27.5882C16.5382 26.5806 17.4617 25.466 18.2208 24.2749C18.4516 24.3095 18.6846 24.3269 18.918 24.3269C21.2784 24.3269 23.2331 22.5725 23.5355 20.3066C24.5017 20.2714 25.5279 20.2711 26.4997 20.3063C26.8019 22.5725 28.7568 24.327 31.1172 24.327C32.1042 24.327 33.0197 24.0195 33.7739 23.4971C34.2975 24.5627 34.4929 25.7617 34.2844 26.9561ZM6.67285 16.9072C8.23346 16.9072 9.50299 18.1696 9.50299 19.7212C9.50299 20.2785 9.33849 20.7982 9.05611 21.2359C8.5857 21.9653 7.786 22.4653 6.86728 22.5277C6.80299 22.5319 6.73813 22.5351 6.67285 22.5351C6.32503 22.5351 5.9919 22.472 5.68385 22.3575C5.06346 22.1255 4.54393 21.6856 4.2149 21.1135C3.97057 20.6897 3.84219 20.2097 3.84256 19.7212C3.84256 18.1696 5.11223 16.9072 6.67285 16.9072ZM16.088 19.6944C16.088 18.2847 17.1361 17.1142 18.498 16.9118C18.6352 16.8912 18.7754 16.8806 18.9181 16.8806C19.8255 16.8806 20.6333 17.3079 21.1513 17.9701C21.281 18.1351 21.3919 18.3141 21.4817 18.5037C21.6576 18.8762 21.7487 19.2828 21.7483 19.6944C21.7483 19.9194 21.7209 20.138 21.6706 20.3478C21.3948 21.4958 20.4102 22.3733 19.2037 22.4941C19.1099 22.5035 19.0146 22.5083 18.9181 22.5083C18.3738 22.5087 17.8409 22.3521 17.3843 22.0574C16.6052 21.5556 16.088 20.6841 16.088 19.6944ZM27.9002 16.3483C27.2843 16.9328 26.8411 17.6737 26.6186 18.4908C25.5518 18.4517 24.484 18.4517 23.4172 18.4908C23.1778 17.6075 22.6814 16.8283 22.0136 16.2365L24.9422 10.3489L27.9002 16.3483ZM15.285 1.81892H34.5913L30.0313 15.1901C29.8351 15.2368 29.6422 15.2962 29.4539 15.368L24.9493 6.23185L20.432 15.3134C20.2351 15.2462 20.0338 15.1923 19.8296 15.152L15.285 1.81892ZM33.9474 19.6946C33.9474 19.9766 33.9051 20.249 33.8271 20.5062C33.6421 21.1118 33.2579 21.6381 32.7362 22.0007C32.262 22.3316 31.6966 22.5089 31.1172 22.5084C29.8105 22.5084 28.7082 21.623 28.384 20.424C28.3197 20.1862 28.2871 19.9409 28.2871 19.6946C28.2871 19.3099 28.3652 18.9431 28.5063 18.609C28.5792 18.438 28.6688 18.2746 28.774 18.1211C29.2834 17.3737 30.1428 16.8807 31.1172 16.8807C31.2066 16.8807 31.2947 16.8853 31.3821 16.8935C32.819 17.0266 33.9474 18.2317 33.9474 19.6946ZM35.7767 19.6946C35.7767 17.4329 34.1377 15.5458 31.9789 15.1428L37.1429 0H12.7337L17.9056 15.1734C15.8219 15.6344 14.2588 17.4858 14.2588 19.6944C14.2588 21.3529 15.1403 22.8096 16.4615 23.6282C15.826 24.5695 15.0725 25.4553 14.2089 26.2654C12.8393 27.5499 11.3136 28.5241 9.66878 29.1652C8.01194 28.1304 7.3116 26.179 8.03888 24.4791L8.0959 24.3459L8.20281 24.0959C10.0226 23.4648 11.3322 21.7428 11.3322 19.7212C11.3322 17.1667 9.24199 15.0886 6.67285 15.0886C4.10371 15.0886 2.01324 17.1667 2.01324 19.7212C2.01324 21.0105 2.54637 22.1781 3.40423 23.0188C3.24423 23.3558 3.08181 23.6917 2.917 24.0264C2.13256 25.6281 1.24363 27.4435 0.907357 29.4595C0.239662 33.4633 1.31675 36.6639 3.94035 38.4716C5.53232 39.5686 7.1491 40 8.776 40C11.8394 40 14.9383 38.4698 17.9693 36.9729C20.1522 35.895 22.4094 34.7804 24.639 34.2336C25.4686 34.0302 26.3222 33.9077 27.226 33.7782C29.0182 33.5211 30.8713 33.2554 32.5129 32.3102C34.4158 31.2144 35.7183 29.3762 36.0866 27.2673C36.4028 25.4567 36.0223 23.6434 35.0943 22.1053C35.5415 21.3798 35.7777 20.5453 35.7767 19.6944V19.6946Z" fill="white"/>
</g>
<defs>
<clipPath id="clip0_128_715">
<rect width="36.5812" height="40" fill="white" transform="translate(0.786499)"/>
</clipPath>
</defs>
</svg>
