<svg width="43" height="40" viewBox="0 0 43 40" fill="none" xmlns="http://www.w3.org/2000/svg">
<g clip-path="url(#clip0_128_718)">
<path fill-rule="evenodd" clip-rule="evenodd" d="M23.0294 1.28977C22.7583 1.28977 22.5066 1.34802 22.2741 1.42565C22.7681 1.7555 23.0392 2.19211 23.1748 2.68682C23.1846 2.75483 23.2039 2.80333 23.2135 2.87119C23.2232 2.92944 23.233 2.98755 23.233 3.0458C23.2716 3.89964 23.0101 4.00624 22.8261 4.51086C22.5452 5.16097 22.6227 5.85941 22.9617 6.42214C22.9908 6.49 23.0294 6.56762 23.078 6.63549C22.7099 4.18101 24.7534 3.81226 25.1311 3.0458C25.1601 2.37633 24.608 1.93011 24.1724 1.61963C23.7557 1.36739 23.378 1.28977 23.0294 1.28977ZM26.1093 1.84273C26.0703 2.06599 26.0995 2.00774 26.0898 2.1241C26.0802 2.20172 26.0802 2.29871 26.0704 2.37633C26.0511 2.45395 26.0318 2.53157 26.0027 2.6092C25.9832 2.68682 25.9543 2.76444 25.9252 2.84206C25.8864 2.91968 25.8575 2.9877 25.8188 3.06517C25.7896 3.10406 25.7703 3.14279 25.7412 3.18168L25.683 3.26891C25.6346 3.33692 25.5862 3.40478 25.5378 3.46304C25.4797 3.52129 25.4314 3.58916 25.3635 3.63765V3.64741C25.3054 3.69591 25.2474 3.75401 25.1795 3.80265C24.9761 3.95775 24.7437 4.07426 24.5305 4.21974C24.4628 4.26824 24.3951 4.30712 24.3369 4.36538C24.2692 4.41387 24.211 4.46237 24.153 4.52047C24.0851 4.57872 24.0367 4.63698 23.9786 4.70484C23.9302 4.7631 23.8722 4.83096 23.8333 4.89897C23.7849 4.96684 23.7365 5.0347 23.6977 5.10271C23.659 5.18033 23.63 5.2482 23.5913 5.32582C23.5622 5.40344 23.5332 5.47145 23.5138 5.54893C23.488 5.62886 23.4653 5.7098 23.4459 5.79155C23.4363 5.83029 23.4363 5.87878 23.4266 5.91767C23.4169 5.9564 23.4169 5.99529 23.4073 6.03403C23.4073 6.11165 23.3975 6.19903 23.3975 6.27665C23.3975 6.33476 23.3975 6.39301 23.4073 6.45126C23.4073 6.52889 23.417 6.60651 23.4363 6.69374C23.4461 6.77136 23.4654 6.84898 23.4848 6.92661C23.5138 7.00423 23.5332 7.08185 23.5622 7.15932C23.5817 7.20797 23.6106 7.25646 23.63 7.29535L21.4026 6.43175C21.0249 6.32515 20.6569 6.22801 20.2792 6.14078L19.6691 5.99514C19.0863 5.87873 18.4981 5.79135 17.9066 5.7333C17.8871 5.7333 17.8774 5.72354 17.8581 5.72354C17.277 5.66528 16.7056 5.63631 16.1245 5.63631C15.6984 5.63631 15.2724 5.65568 14.8559 5.6848C14.2651 5.72354 13.6743 5.80116 13.0837 5.89815C12.9383 5.91767 12.7929 5.94665 12.6479 5.97577C12.3475 6.03403 12.0571 6.10189 11.7762 6.1699L11.3404 6.28626C11.195 6.34451 11.0595 6.41238 10.9239 6.47063L10.6044 6.61627C10.5849 6.62588 10.5656 6.62588 10.556 6.63549C10.4592 6.68398 10.3719 6.72287 10.2847 6.77136C10.2558 6.78112 10.2363 6.79088 10.217 6.80049C10.1106 6.84898 10.004 6.90709 9.91679 6.95573C9.84905 6.98486 9.78116 7.0236 9.72316 7.05272C9.69408 7.07224 9.65527 7.09161 9.63593 7.10122C9.54871 7.14971 9.46164 7.19821 9.38415 7.24685C9.29693 7.2952 9.21945 7.34384 9.15171 7.39234C9.08397 7.44083 9.01607 7.47957 8.95807 7.52806C8.94833 7.53782 8.93859 7.53782 8.929 7.54758C8.87085 7.58632 8.80311 7.63481 8.74496 7.68331L8.72548 7.70283L8.5804 7.81918C8.56092 7.82879 8.54144 7.84831 8.52226 7.85792C8.47385 7.89681 8.42544 7.9453 8.37688 7.98404C8.36729 8.00356 8.34796 8.01316 8.33822 8.02292C8.28007 8.08118 8.22207 8.12952 8.16392 8.18778C8.15418 8.18778 8.15418 8.19754 8.14444 8.20729C8.08644 8.25579 8.02829 8.31389 7.97014 8.37215C7.96055 8.38191 7.96055 8.39167 7.9508 8.39167C7.90001 8.44107 7.85155 8.49282 7.80558 8.54676C7.7861 8.56628 7.75717 8.58565 7.73784 8.60501C7.68943 8.66327 7.63128 8.72137 7.57313 8.77963C7.56339 8.79915 7.54406 8.80875 7.53447 8.82812C7.45699 8.90574 7.38909 8.98337 7.31161 9.06099L7.28269 9.09012C7.12772 9.25497 6.96302 9.41997 6.78872 9.56546C6.61701 9.71896 6.43586 9.86152 6.24634 9.9923C6.05853 10.1243 5.86464 10.2473 5.6653 10.361C5.46764 10.4697 5.26394 10.5669 5.05518 10.6522C4.84921 10.7398 4.63915 10.8175 4.42573 10.8849C4.01898 10.9723 3.6025 11.1371 3.24416 11.1662C3.16668 11.1662 3.0796 11.1858 3.00212 11.1954C2.9149 11.2149 2.83742 11.2343 2.75993 11.2536L2.52764 11.341C2.45 11.37 2.37252 11.4089 2.29504 11.4476C2.2273 11.4961 2.14982 11.535 2.08207 11.5835C2.01418 11.632 1.94644 11.6901 1.88829 11.7485C1.82055 11.797 1.75281 11.8648 1.69466 11.9231C1.63651 11.991 1.57851 12.0492 1.52996 12.1171C1.48155 12.1947 1.42355 12.2627 1.38473 12.3402C1.33633 12.4082 1.28792 12.4858 1.24925 12.5634C1.21029 12.6507 1.17177 12.7283 1.14269 12.8157C1.11212 12.8992 1.08304 12.9833 1.05547 13.0679C1.03614 13.1455 1.0168 13.2232 1.00706 13.3006C1.00706 13.3105 0.997321 13.3201 0.997321 13.3299C0.977988 13.4171 0.977988 13.5336 0.968247 13.5917C0.958655 13.6598 0.948914 13.7179 0.948914 13.7859C0.948914 13.8246 0.948914 13.8731 0.958655 13.912C0.968397 13.9799 0.978138 14.0381 0.997471 14.0964C1.0168 14.1545 1.03614 14.2127 1.06521 14.271V14.2806C1.09429 14.3388 1.13295 14.3971 1.17162 14.4553C1.21059 14.5135 1.24925 14.5717 1.29751 14.63C1.34607 14.6785 1.40422 14.7366 1.46237 14.7852C1.52036 14.8433 1.57851 14.8918 1.64626 14.9404C1.8787 15.1442 1.93685 15.2121 2.23704 15.3673C2.28545 15.3964 2.33386 15.4158 2.392 15.4449C2.40175 15.4449 2.41134 15.4545 2.42108 15.4545C2.42108 15.474 2.42108 15.4837 2.43067 15.5032C2.44041 15.5808 2.45975 15.6584 2.47923 15.7359C2.49766 15.8158 2.52355 15.8937 2.55656 15.9688C2.58564 16.027 2.60512 16.0853 2.63404 16.1435C2.64378 16.1629 2.65353 16.1823 2.66312 16.192C2.70193 16.2696 2.7406 16.3375 2.77942 16.4054L2.92464 16.6091C2.97305 16.6674 3.03105 16.7352 3.08935 16.7935C3.14735 16.8517 3.20549 16.9001 3.27324 16.9585C3.27324 16.9585 3.28298 16.9681 3.29272 16.9681C3.35072 17.0166 3.40887 17.0652 3.46702 17.104C3.53476 17.1525 3.6025 17.1913 3.67998 17.2301C3.74787 17.269 3.82535 17.3077 3.90284 17.3367C3.96084 17.366 4.02873 17.3853 4.09647 17.4047C4.10621 17.4144 4.1158 17.4144 4.13513 17.4242C4.1741 17.4338 4.22236 17.4436 4.26102 17.4532C4.2321 17.9772 4.22236 18.4719 4.29999 18.6465C4.38691 18.8406 4.81314 18.2488 5.23922 17.5697C5.18107 18.239 5.1424 19.025 5.23922 19.2577C5.34578 19.5003 5.92682 18.7436 6.43038 17.9092C13.2968 16.3181 19.5627 21.0721 20.2212 27.7858C20.0953 26.738 18.8072 26.1559 18.2164 26.3013C17.926 27.0193 17.432 27.941 16.6378 28.5135C16.7072 27.8656 16.6745 27.2108 16.541 26.5731C16.328 27.4657 15.9116 28.3 15.3401 29.018C14.4202 29.0858 13.5002 28.6396 13.0159 27.97C12.9771 27.941 12.9675 27.8829 12.9385 27.8439C12.9094 27.776 12.8803 27.7082 12.861 27.6403C12.8327 27.5752 12.8132 27.5067 12.8028 27.4366C12.7931 27.3685 12.7931 27.3007 12.7931 27.2231V27.0774C12.8028 27.0096 12.8222 26.9417 12.8415 26.8738C12.861 26.8058 12.8803 26.738 12.9094 26.6701C12.948 26.6021 12.9771 26.5342 13.0255 26.4664C13.1902 26.0006 13.1902 25.6223 12.89 25.3992C12.8319 25.361 12.7703 25.3285 12.706 25.302C12.6672 25.2924 12.6188 25.273 12.5801 25.2633C12.551 25.2535 12.5317 25.2438 12.5026 25.2342C12.4347 25.2146 12.367 25.1953 12.2993 25.1857C12.2332 25.1665 12.1647 25.1567 12.0959 25.1565C12.028 25.1468 11.9505 25.137 11.8828 25.137C11.8344 25.137 11.786 25.1469 11.7374 25.1469C11.6601 25.1469 11.5923 25.1565 11.5246 25.1759C11.4567 25.1857 11.389 25.1954 11.3211 25.2148C11.2533 25.2343 11.1854 25.2537 11.1177 25.2827C11.05 25.3118 10.9918 25.3409 10.9241 25.37C10.8659 25.3992 10.8078 25.4379 10.74 25.467C8.48359 26.9417 9.82972 30.3957 11.3695 31.395C10.7884 31.5016 10.1976 31.6277 10.0331 31.7538L10.0136 31.7733C10.4302 32.0256 10.8659 32.2391 11.3211 32.4234C11.9409 32.627 12.5994 32.8114 12.89 32.889V32.8988C13.6924 33.0636 14.5129 33.1223 15.3305 33.0734C19.6207 32.7727 23.1362 29.5031 23.7753 25.1954C23.7948 25.2827 23.8142 25.3603 23.8335 25.4477C23.8626 25.6223 23.9012 25.8065 23.9206 25.991V26.0006C23.9401 26.088 23.9496 26.1754 23.9594 26.2529V26.2919C23.9691 26.379 23.9789 26.4664 23.9789 26.5441C23.9885 26.6507 23.9981 26.7573 23.9981 26.8642V27.0195C23.9981 27.068 24.0078 27.1261 24.0078 27.1746C24.0078 27.2328 23.9981 27.2911 23.9981 27.3493V27.485C23.9981 27.5531 23.9883 27.6112 23.9883 27.6792C23.9883 27.7179 23.9883 27.7568 23.9787 27.8053C23.9787 27.8732 23.969 27.941 23.969 28.0186C23.9592 28.0478 23.9592 28.0769 23.9592 28.106C23.9496 28.1836 23.9399 28.2517 23.9302 28.3291C23.9302 28.3583 23.9302 28.3874 23.9206 28.4165C23.9108 28.5135 23.8915 28.6009 23.8818 28.6979V28.7172C23.8624 28.8046 23.8431 28.9016 23.8236 28.989V29.018L23.7656 29.28C23.7656 29.2897 23.7559 29.3091 23.7559 29.3189C23.7364 29.4061 23.717 29.4935 23.6881 29.5807V29.6098C23.659 29.707 23.63 29.7942 23.6106 29.8816C23.6009 29.8912 23.6009 29.9009 23.6009 29.9009L23.5137 30.1919C23.475 30.2891 23.4459 30.3763 23.4073 30.4733C23.3685 30.5704 23.3394 30.6674 23.3007 30.7546C23.2619 30.8518 23.2232 30.939 23.1844 31.036H23.1748C23.1359 31.1234 23.0973 31.2204 23.0489 31.3077C23.0392 31.3369 23.0294 31.3562 23.0199 31.3756C23.0101 31.3854 23.0101 31.3951 23.0004 31.4047C22.3709 32.6757 21.4413 33.7914 20.279 34.6646C20.2016 34.7131 20.1241 34.7712 20.0468 34.8296C20.0273 34.8489 19.9982 34.8585 19.9789 34.8781C19.9111 34.9266 19.8432 34.9751 19.7659 35.0236L19.7948 35.0818H19.8046L20.2113 35.0236H20.221C20.4728 34.9847 20.7246 34.9362 20.9764 34.8877C21.0441 34.8779 21.1218 34.8585 21.1895 34.8392C21.2379 34.8294 21.2766 34.8198 21.325 34.8101C21.3929 34.8004 21.4606 34.7809 21.5284 34.7713C21.5865 34.7518 21.6447 34.7422 21.7028 34.7228C22.6713 34.49 23.6106 34.1697 24.5114 33.7914C22.9714 35.8968 20.9085 37.5945 18.4971 38.7102C19.6109 38.6326 20.7246 38.4484 21.7996 38.1379C25.7025 36.9833 28.9856 34.3541 30.9514 30.8129C30.5524 33.0592 29.6628 35.1894 28.3464 37.0512C29.2849 36.431 30.1521 35.7087 30.9321 34.8974C33.1014 32.6272 34.525 29.7457 35.0092 26.6507C35.3396 28.1862 35.4343 29.7631 35.2901 31.3271C42.2822 21.5572 35.8711 11.4284 33.1885 8.76041C33.1789 8.74089 33.1691 8.73128 33.1691 8.71191C33.1596 8.72152 33.1596 8.72152 33.1596 8.73128C33.1596 8.72152 33.1596 8.72152 33.1498 8.71176C33.1498 8.82827 33.1401 8.94463 33.1303 9.06114C33.1014 9.28425 33.0723 9.49774 33.0335 9.71124C32.9851 9.92459 32.9271 10.1381 32.869 10.3514C32.8001 10.5615 32.7226 10.7687 32.6367 10.9724C32.5476 11.1735 32.4506 11.3709 32.3459 11.5643C32.2395 11.7485 32.1232 11.9426 31.9973 12.1172C31.8727 12.2977 31.7402 12.4725 31.6002 12.6412C31.4549 12.8158 31.3001 12.9711 31.1452 13.1262C31.054 13.2098 30.9603 13.2907 30.8643 13.3688C30.7868 13.4367 30.7189 13.4949 30.6415 13.5628C30.4672 13.6986 30.2929 13.8248 30.0992 13.9411C29.9152 14.0576 29.7216 14.174 29.5278 14.2711C29.3244 14.3681 29.121 14.4553 28.9178 14.5427C28.7143 14.6204 28.5012 14.6884 28.2882 14.7465C28.0741 14.8042 27.8576 14.8528 27.6393 14.8921C27.4166 14.9308 27.1939 14.9502 26.9808 14.9696C26.8258 14.9793 26.6708 14.9891 26.5159 14.9891C26.2931 14.9891 26.0704 14.9696 25.8573 14.9501C25.6346 14.9308 25.4119 14.9017 25.1988 14.8532C24.9761 14.8142 24.763 14.7561 24.5499 14.6882H24.5403C24.7534 14.6687 24.9664 14.6493 25.1795 14.6106C25.398 14.5723 25.6145 14.5237 25.8284 14.465C26.0414 14.4073 26.2515 14.3394 26.4579 14.2614C26.6708 14.1837 26.8742 14.0868 27.0678 13.9896C27.2713 13.8926 27.4554 13.7859 27.649 13.6695C27.8331 13.5434 28.0169 13.4173 28.1914 13.2814C28.3649 13.1463 28.5298 13.0005 28.6852 12.8448C28.8499 12.6992 28.9951 12.5343 29.1404 12.3695C29.2819 12.1996 29.4176 12.0248 29.5471 11.8455C29.5666 11.8165 29.5859 11.7776 29.6053 11.7485C29.7021 11.5932 29.7989 11.438 29.8861 11.2828C29.9926 11.0904 30.0896 10.893 30.1767 10.6911C30.2642 10.488 30.3417 10.2807 30.409 10.0701C30.4769 9.86634 30.5253 9.65284 30.5737 9.43949C30.6125 9.21638 30.6512 9.00288 30.6705 8.78939C30.69 8.56628 30.7093 8.34317 30.7093 8.12967C30.7093 7.97443 30.6996 7.81918 30.6899 7.66394C30.6707 7.44083 30.6416 7.22749 30.6125 7.01384C30.5743 6.79501 30.5258 6.57811 30.4672 6.36388C30.3994 6.16014 30.3317 5.9468 30.2542 5.74306C30.1767 5.53932 30.0799 5.33558 29.9829 5.14145C29.8765 4.94747 29.77 4.75349 29.6537 4.56912C29.5301 4.38731 29.4009 4.20936 29.2664 4.03552C29.1206 3.86816 28.972 3.70319 28.8208 3.54066C28.7393 3.45743 28.6553 3.37657 28.5691 3.29819C28.1352 2.96064 27.686 2.64336 27.2229 2.34735C27.1552 2.30847 27.097 2.27949 27.0292 2.25036C26.7096 2.04662 26.4094 1.93972 26.1093 1.84273Z" fill="#E0234E"/>
</g>
<defs>
<clipPath id="clip0_128_718">
<rect width="41.3333" height="40" fill="white" transform="translate(0.948914)"/>
</clipPath>
</defs>
</svg>
