<svg width="41" height="40" viewBox="0 0 41 40" fill="none" xmlns="http://www.w3.org/2000/svg">
<g clip-path="url(#clip0_128_719)">
<path d="M18.9738 0.0312467C18.8878 0.0390585 18.6144 0.0663995 18.3684 0.0859289C12.6931 0.597598 7.37724 3.6598 4.01038 8.36637C2.13556 10.9833 0.936462 13.9518 0.483381 17.096C0.32324 18.1935 0.303711 18.5177 0.303711 20.0059C0.303711 21.494 0.32324 21.8182 0.483381 22.9157C1.56921 30.4189 6.90853 36.723 14.15 39.0587C15.4468 39.4766 16.8138 39.7617 18.3684 39.9336C18.9738 40 21.5907 40 22.1961 39.9336C24.8794 39.6368 27.1527 38.9728 29.3946 37.8283C29.7383 37.6526 29.8047 37.6057 29.7579 37.5666C29.7266 37.5432 28.2619 35.5786 26.5043 33.2038L23.3093 28.8878L19.3058 22.9626C17.1029 19.7051 15.2905 17.0413 15.2749 17.0413C15.2593 17.0374 15.2437 19.67 15.2358 22.8845C15.2241 28.5128 15.2202 28.7394 15.1499 28.8722C15.0484 29.0636 14.9702 29.1417 14.8062 29.2276C14.6812 29.2901 14.5718 29.3018 13.9821 29.3018H13.3063L13.1267 29.1886C13.0095 29.1143 12.9236 29.0167 12.865 28.9034L12.783 28.7277L12.7908 20.8964L12.8025 13.0612L12.9236 12.9089C12.9861 12.8269 13.1189 12.7214 13.2126 12.6706C13.3727 12.5925 13.4352 12.5847 14.111 12.5847C14.9078 12.5847 15.0406 12.616 15.2476 12.8425C15.3062 12.905 17.4739 16.1703 20.0674 20.1035C22.6609 24.0367 26.2074 29.4073 27.9494 32.0437L31.1132 36.8362L31.2733 36.7308C32.6912 35.809 34.191 34.4966 35.3784 33.1296C37.9055 30.2275 39.5343 26.6888 40.0811 22.9157C40.2412 21.8182 40.2607 21.494 40.2607 20.0059C40.2607 18.5177 40.2412 18.1935 40.0811 17.096C38.9952 9.59281 33.6559 3.28874 26.4144 0.953032C25.1372 0.53901 23.778 0.253881 22.2547 0.082023C21.8797 0.0429643 19.2979 -2.33032e-07 18.9738 0.0312467ZM27.1527 12.116C27.3401 12.2097 27.4925 12.3894 27.5471 12.5769C27.5784 12.6784 27.5862 14.8501 27.5784 19.7442L27.5667 26.7669L26.3285 24.8687L25.0864 22.9704V17.8654C25.0864 14.565 25.1021 12.7097 25.1255 12.6199C25.188 12.4011 25.3247 12.2293 25.5122 12.1277C25.6723 12.0457 25.7309 12.0379 26.3441 12.0379C26.9222 12.0379 27.0238 12.0457 27.1527 12.116Z" fill="black"/>
</g>
<defs>
<clipPath id="clip0_128_719">
<rect width="40" height="40" fill="white" transform="translate(0.282227)"/>
</clipPath>
</defs>
</svg>
