<svg width="37" height="40" viewBox="0 0 37 40" fill="none" xmlns="http://www.w3.org/2000/svg">
<g clip-path="url(#clip0_128_714)">
<path d="M16.8495 0.507801C17.8441 -0.0574474 19.1396 -0.0600005 20.1334 0.507801C25.1329 3.31262 30.134 6.11305 35.1327 8.91957C36.0729 9.44539 36.7018 10.4843 36.6922 11.5599V28.4348C36.6992 29.5549 36.0082 30.6186 35.0163 31.1325C30.0332 33.9218 25.0526 36.7146 20.0704 39.504C19.0552 40.0803 17.7337 40.0359 16.7502 39.4123C15.2563 38.5525 13.7598 37.6969 12.2657 36.8379C11.9604 36.6572 11.6163 36.5133 11.4007 36.2194C11.5913 35.9644 11.932 35.9326 12.2089 35.8213C12.8325 35.6244 13.4052 35.3084 13.9781 35.0017C14.123 34.9033 14.2998 34.941 14.4387 35.0291C15.7162 35.7563 16.9824 36.5047 18.2642 37.225C18.5376 37.3817 18.8145 37.1736 19.0482 37.0443C23.9381 34.3003 28.8341 31.5667 33.7232 28.8218C33.9043 28.7353 34.0045 28.5444 33.9898 28.3474C33.9932 22.7807 33.9906 17.213 33.9915 11.6464C34.0122 11.4228 33.8819 11.2173 33.6783 11.1258C28.7125 8.34922 23.7493 5.56837 18.7843 2.79106C18.6983 2.73235 18.5964 2.70084 18.492 2.70069C18.3876 2.70054 18.2856 2.73175 18.1994 2.79021C13.2345 5.56837 8.27211 8.35177 3.30715 11.1282C3.10429 11.2199 2.96814 11.422 2.99228 11.6464C2.99314 17.213 2.99228 22.7807 2.99228 28.3482C2.98367 28.4444 3.00494 28.5408 3.05321 28.6246C3.10149 28.7083 3.17446 28.7754 3.2623 28.8167C4.58722 29.5627 5.91385 30.3034 7.23963 31.0468C7.98652 31.446 8.90357 31.6831 9.72646 31.3773C10.4526 31.1187 10.9617 30.383 10.9478 29.6174C10.9547 24.0833 10.9444 18.5482 10.953 13.0149C10.9348 12.7692 11.1695 12.5662 11.4101 12.5894C12.0467 12.5851 12.6842 12.5809 13.3208 12.5911C13.5865 12.5851 13.7694 12.8496 13.7365 13.0972C13.7339 18.6664 13.7434 24.2357 13.7322 29.805C13.7339 31.2892 13.1198 32.9043 11.737 33.6305C10.0335 34.5067 7.92795 34.3209 6.24501 33.4807C4.78808 32.7587 3.39773 31.9067 1.96666 31.1332C0.972185 30.6221 0.284581 29.5542 0.291581 28.4349V11.5599C0.281152 10.462 0.935041 9.40425 1.90452 8.8861C6.88676 6.09447 11.8681 3.30071 16.8495 0.507801Z" fill="#8CC84B"/>
<path d="M21.196 12.1972C23.369 12.0583 25.6952 12.1149 27.6506 13.1777C29.1645 13.9922 30.0039 15.7016 30.0306 17.3715C29.9883 17.5967 29.7511 17.721 29.5346 17.7055C28.9041 17.7047 28.2735 17.714 27.643 17.7013C27.3756 17.7115 27.2202 17.4667 27.1866 17.2319C27.0054 16.4329 26.5666 15.6416 25.8091 15.2562C24.6463 14.6782 23.2981 14.7072 22.0302 14.7193C21.1046 14.7681 20.1093 14.8477 19.3251 15.3881C18.723 15.7974 18.5402 16.6238 18.755 17.2894C18.9576 17.7672 19.5132 17.9214 19.9678 18.0635C22.5865 18.7435 25.3615 18.6759 27.9302 19.5708C28.9937 19.9356 30.034 20.6448 30.398 21.7504C30.8742 23.2321 30.6655 25.0031 29.6037 26.1926C28.7427 27.1715 27.4886 27.7043 26.2378 27.9936C24.5739 28.362 22.8471 28.3713 21.1573 28.2078C19.5684 28.0279 17.9149 27.6135 16.6882 26.5386C15.6393 25.6343 15.127 24.2254 15.1779 22.8655C15.19 22.6359 15.4203 22.4757 15.6419 22.4946C16.2768 22.4895 16.9117 22.4878 17.5466 22.4955C17.8001 22.4774 17.9881 22.695 18.0011 22.9323C18.1183 23.6936 18.4065 24.4926 19.0751 24.944C20.3654 25.7705 21.9845 25.7139 23.462 25.737C24.686 25.6831 26.0601 25.6668 27.059 24.8635C27.586 24.4054 27.7422 23.6389 27.5998 22.9794C27.4455 22.4227 26.8589 22.1633 26.3551 21.9936C23.77 21.1817 20.964 21.4763 18.4039 20.5582C17.3645 20.1935 16.3595 19.504 15.9602 18.4438C15.403 16.9434 15.6583 15.0875 16.8314 13.9382C17.9751 12.7949 19.6262 12.3548 21.196 12.1972Z" fill="#8CC84B"/>
</g>
<defs>
<clipPath id="clip0_128_714">
<rect width="36.5812" height="40" fill="white" transform="translate(0.205292)"/>
</clipPath>
</defs>
</svg>
