<svg width="37" height="40" viewBox="0 0 37 40" fill="none" xmlns="http://www.w3.org/2000/svg">
<path fill-rule="evenodd" clip-rule="evenodd" d="M34.9265 30.4744L21.2815 1.26178C21.112 0.902267 20.8492 0.595651 20.5209 0.374391C20.1927 0.15313 19.8112 0.0254563 19.4169 0.00488391C19.0218 -0.0217995 18.6271 0.0612241 18.2756 0.244925C17.9241 0.428627 17.6293 0.705973 17.4232 1.0468L2.62376 25.2119C2.39871 25.5767 2.28151 25.9987 2.2859 26.4284C2.29029 26.858 2.41609 27.2775 2.64855 27.6377L9.88413 38.9338C10.1579 39.3578 10.5603 39.6812 11.0313 39.8558C11.5023 40.0305 12.0166 40.0469 12.4977 39.9027L33.4952 33.6412C33.8114 33.548 34.104 33.3875 34.3533 33.1705C34.6026 32.9534 34.8028 32.685 34.9404 32.3833C35.076 32.0831 35.1451 31.7568 35.1429 31.4269C35.1406 31.0971 35.0671 30.7717 34.9275 30.4734L34.9265 30.4744ZM31.8716 31.7273L14.0539 37.0389C13.5104 37.2019 12.9886 36.7269 13.1017 36.174L19.4674 5.44545C19.5865 4.87049 20.374 4.7795 20.6229 5.31146L32.4072 30.5394C32.4593 30.6518 32.4866 30.7743 32.4872 30.8984C32.4878 31.0225 32.4617 31.1452 32.4107 31.2582C32.3596 31.3711 32.2849 31.4715 32.1917 31.5525C32.0985 31.6335 31.9899 31.6932 31.8716 31.7273Z" fill="black"/>
</svg>
