<svg width="41" height="40" viewBox="0 0 41 40" fill="none" xmlns="http://www.w3.org/2000/svg">
<g clip-path="url(#clip0_128_724)">
<path d="M20.1478 40C16.753 40 13.4973 38.6514 11.0968 36.251C8.69635 33.8505 7.34778 30.5948 7.34778 27.2C7.34778 23.8052 8.69635 20.5495 11.0968 18.149C13.4973 15.7486 16.753 14.4 20.1478 14.4V40ZM20.1478 0H7.34778V12.8H20.1478V0ZM28.1478 12.8C29.8452 12.8 31.473 12.1257 32.6733 10.9255C33.8735 9.72525 34.5478 8.09739 34.5478 6.4C34.5478 4.70261 33.8735 3.07475 32.6733 1.87452C31.473 0.674284 29.8452 0 28.1478 0C26.4504 0 24.8225 0.674284 23.6223 1.87452C22.4221 3.07475 21.7478 4.70261 21.7478 6.4C21.7478 8.09739 22.4221 9.72525 23.6223 10.9255C24.8225 12.1257 26.4504 12.8 28.1478 12.8Z" fill="black"/>
</g>
<defs>
<clipPath id="clip0_128_724">
<rect width="40" height="40" fill="white" transform="translate(0.947754)"/>
</clipPath>
</defs>
</svg>
