<svg width="46" height="40" viewBox="0 0 46 40" fill="none" xmlns="http://www.w3.org/2000/svg">
<g clip-path="url(#clip0_128_713)">
<path d="M45.2053 20.0046C45.2053 17.038 41.4555 14.2266 35.7065 12.4832C37.0332 6.67788 36.4435 2.05918 33.8454 0.580461C33.2466 0.233602 32.5463 0.0693008 31.7816 0.0693008V2.10482C32.2055 2.10482 32.5463 2.18697 32.832 2.34214C34.085 3.05411 34.6285 5.76509 34.2047 9.25194C34.1034 10.11 33.9375 11.0136 33.7349 11.9355C31.9291 11.4974 29.9574 11.1597 27.8845 10.9406C26.6407 9.25194 25.3508 7.71845 24.0518 6.37666C27.0553 3.61091 29.8745 2.09569 31.7909 2.09569V0.060173C29.2572 0.060173 25.9405 1.84924 22.5869 4.95271C19.2333 1.86749 15.9165 0.0966846 13.3829 0.0966846V2.1322C15.29 2.1322 18.1185 3.6383 21.122 6.38579C19.8321 7.72758 18.5423 9.25194 17.3169 10.9406C15.2347 11.1597 13.2631 11.4974 11.4573 11.9447C11.2454 11.0319 11.0888 10.1465 10.9782 9.29758C10.5452 5.81073 11.0796 3.09975 12.3234 2.37865C12.5998 2.21435 12.9591 2.14133 13.3829 2.14133V0.105812C12.609 0.105812 11.9088 0.270114 11.3007 0.616973C8.71178 2.09569 8.13134 6.70526 9.46726 12.4923C3.73664 14.2449 0.0052948 17.0471 0.0052948 20.0046C0.0052948 22.9711 3.75507 25.7825 9.50411 27.5259C8.17741 33.3313 8.76706 37.95 11.3652 39.4287C11.964 39.7755 12.6642 39.9398 13.4382 39.9398C15.9718 39.9398 19.2885 38.1508 22.6421 35.0473C25.9958 38.1325 29.3125 39.9033 31.8461 39.9033C32.6201 39.9033 33.3203 39.739 33.9283 39.3922C36.5172 37.9134 37.0977 33.3039 35.7618 27.5168C41.4739 25.7734 45.2053 22.962 45.2053 20.0046ZM33.2097 13.9163C32.8688 15.0938 32.445 16.3078 31.9659 17.5218C31.5882 16.7916 31.192 16.0613 30.759 15.3311C30.3352 14.6009 29.8837 13.8889 29.4323 13.1952C30.7406 13.3869 32.0028 13.6242 33.2097 13.9163ZM28.99 23.6375C28.2714 24.8697 27.5344 26.0381 26.7697 27.1243C25.3969 27.243 24.0057 27.3069 22.6053 27.3069C21.2141 27.3069 19.8229 27.243 18.4594 27.1334C17.6947 26.0472 16.9484 24.888 16.2298 23.6648C15.5296 22.4691 14.8938 21.2551 14.3134 20.0319C14.8846 18.8088 15.5296 17.5857 16.2205 16.3899C16.9392 15.1577 17.6762 13.9893 18.4409 12.9031C19.8137 12.7844 21.2049 12.7205 22.6053 12.7205C23.9965 12.7205 25.3877 12.7844 26.7512 12.894C27.5159 13.9802 28.2622 15.1394 28.9808 16.3625C29.681 17.5583 30.3168 18.7723 30.8972 19.9954C30.3168 21.2186 29.681 22.4417 28.99 23.6375ZM31.9659 22.4508C32.4634 23.674 32.8872 24.8971 33.2373 26.0837C32.0304 26.3758 30.759 26.6223 29.4415 26.814C29.8929 26.1111 30.3444 25.39 30.7682 24.6506C31.192 23.9204 31.5882 23.1811 31.9659 22.4508ZM22.6237 32.1903C21.7669 31.314 20.9101 30.3373 20.0625 29.2694C20.8916 29.3059 21.7393 29.3332 22.5961 29.3332C23.4621 29.3332 24.319 29.315 25.1574 29.2694C24.3282 30.3373 23.4713 31.314 22.6237 32.1903ZM15.7691 26.814C14.4608 26.6223 13.1986 26.3849 11.9917 26.0929C12.3326 24.9154 12.7564 23.7014 13.2355 22.4873C13.6132 23.2176 14.0094 23.9478 14.4424 24.678C14.8754 25.4083 15.3176 26.1202 15.7691 26.814ZM22.5777 7.81886C23.4345 8.69514 24.2913 9.67182 25.1389 10.7398C24.3097 10.7033 23.4621 10.6759 22.6053 10.6759C21.7393 10.6759 20.8824 10.6941 20.044 10.7398C20.8732 9.67182 21.73 8.69514 22.5777 7.81886ZM15.7599 13.1952C15.3084 13.898 14.857 14.6191 14.4332 15.3585C14.0094 16.0887 13.6132 16.8189 13.2355 17.5492C12.7379 16.326 12.3141 15.1029 11.964 13.9163C13.171 13.6333 14.4424 13.3869 15.7599 13.1952ZM7.42193 24.6233C4.16045 23.245 2.05063 21.4376 2.05063 20.0046C2.05063 18.5715 4.16045 16.755 7.42193 15.3859C8.21427 15.0481 9.08031 14.7469 9.97399 14.4639C10.4991 16.253 11.1901 18.1151 12.047 20.0228C11.1993 21.9214 10.5176 23.7744 10.0016 25.5543C9.08952 25.2713 8.22348 24.961 7.42193 24.6233ZM12.3786 37.667C11.1256 36.955 10.5821 34.244 11.0059 30.7572C11.1072 29.8992 11.2731 28.9955 11.4757 28.0736C13.2815 28.5117 15.2532 28.8495 17.3261 29.0685C18.5699 30.7572 19.8598 32.2907 21.1588 33.6325C18.1553 36.3982 15.3361 37.9134 13.4197 37.9134C13.0051 37.9043 12.655 37.8222 12.3786 37.667ZM34.2324 30.7116C34.6654 34.1984 34.131 36.9094 32.8872 37.6305C32.6108 37.7948 32.2515 37.8678 31.8277 37.8678C29.9206 37.8678 27.0921 36.3617 24.0886 33.6142C25.3785 32.2724 26.6683 30.7481 27.8937 29.0594C29.9759 28.8403 31.9475 28.5026 33.7533 28.0553C33.9652 28.9773 34.131 29.8627 34.2324 30.7116ZM37.7795 24.6233C36.9871 24.961 36.1211 25.2622 35.2274 25.5452C34.7022 23.7561 34.0112 21.894 33.1544 19.9863C34.002 18.0877 34.6838 16.2348 35.1998 14.4548C36.1119 14.7378 36.9779 15.0481 37.7887 15.3859C41.0501 16.7642 43.16 18.5715 43.16 20.0046C43.1507 21.4376 41.0409 23.2541 37.7795 24.6233Z" fill="#61DAFB"/>
<path d="M22.5961 24.176C24.9214 24.176 26.8065 22.3084 26.8065 20.0046C26.8065 17.7007 24.9214 15.8331 22.5961 15.8331C20.2707 15.8331 18.3856 17.7007 18.3856 20.0046C18.3856 22.3084 20.2707 24.176 22.5961 24.176Z" fill="#61DAFB"/>
</g>
<defs>
<clipPath id="clip0_128_713">
<rect width="45.2" height="40" fill="white" transform="translate(0.0052948)"/>
</clipPath>
</defs>
</svg>
