<svg width="41" height="40" viewBox="0 0 41 40" fill="none" xmlns="http://www.w3.org/2000/svg">
<g clip-path="url(#clip0_128_722)">
<path d="M37.1006 2.08583C36.538 3.4294 35.8243 4.70526 34.9647 5.87697C31.2033 2.11708 26.0978 0.00279236 20.7787 0.00279236C9.77582 0.00279236 0.721375 9.06403 0.721375 20.0781C0.721375 25.5721 2.97196 30.8318 6.95216 34.623L7.69194 35.2791C11.3075 38.3256 15.8868 40.0024 20.612 40.0024C31.073 40.0024 39.867 31.8056 40.612 21.3592C41.159 16.2453 39.6586 9.77747 37.1006 2.08583ZM9.80186 34.7375C9.47886 35.1385 8.98394 35.3729 8.46818 35.3729C7.52523 35.3729 6.7542 34.5969 6.7542 33.6543C6.7542 32.7118 7.53044 31.9358 8.46818 31.9358C8.85891 31.9358 9.24443 32.0712 9.54659 32.3212C10.2812 32.9149 10.3958 34.0033 9.80186 34.7375ZM37.0173 28.7279C32.0681 35.326 21.4976 33.1023 14.7198 33.42C14.7198 33.42 13.5164 33.4929 12.3077 33.6908C12.3077 33.6908 12.761 33.4981 13.3497 33.2742C18.1061 31.6182 20.3567 31.2953 23.2481 29.8111C28.6922 27.0407 34.0738 20.979 35.1939 14.6726C33.1204 20.7395 26.8376 25.9523 21.1121 28.0718C17.1892 29.5195 10.104 30.9256 10.104 30.9256L9.81749 30.7745C4.99332 28.4259 4.84745 17.9742 13.6154 14.5997C17.4549 13.1208 21.1277 13.9331 25.2746 12.9437C29.7029 11.8918 34.824 8.5693 36.9079 4.23658C39.2418 11.1679 42.0498 22.0206 37.0173 28.7279Z" fill="#77BC1F"/>
</g>
<defs>
<clipPath id="clip0_128_722">
<rect width="40" height="40" fill="white" transform="translate(0.721375)"/>
</clipPath>
</defs>
</svg>
