<svg width="41" height="40" viewBox="0 0 41 40" fill="none" xmlns="http://www.w3.org/2000/svg">
<g clip-path="url(#clip0_128_717)">
<path d="M20.9287 8.57143C15.6904 8.57143 12.4167 11.1905 11.107 16.4282C13.0715 13.8091 15.3632 12.8273 17.9821 13.4819C19.4765 13.8553 20.5445 14.9398 21.727 16.1398C23.6527 18.0945 25.8815 20.3569 30.7504 20.3569C35.9881 20.3569 39.2623 17.7378 40.5715 12.4996C38.6075 15.1187 36.3158 16.101 33.6964 15.4464C32.2025 15.073 31.1345 13.9885 29.9521 12.7885C28.0263 10.8338 25.797 8.57143 20.9287 8.57143ZM11.107 20.3569C5.86924 20.3569 2.59502 22.976 1.28583 28.2142C3.24987 25.5951 5.54158 24.6128 8.16095 25.2678C9.65486 25.6418 10.7228 26.7258 11.9053 27.9253C13.831 29.88 16.0603 32.1429 20.9287 32.1429C26.1669 32.1429 29.4407 29.5238 30.7504 24.2856C28.7858 26.9047 26.4941 27.8869 23.8752 27.2319C22.3808 26.859 21.3128 25.774 20.1304 24.5745C18.2047 22.6197 15.9758 20.3569 11.107 20.3569Z" fill="#06B6D4"/>
</g>
<defs>
<clipPath id="clip0_128_717">
<rect width="40" height="40" fill="white" transform="translate(0.948914)"/>
</clipPath>
</defs>
</svg>
