<svg width="41" height="40" viewBox="0 0 41 40" fill="none" xmlns="http://www.w3.org/2000/svg">
<g clip-path="url(#clip0_128_711)">
<path d="M0.322037 20V0H40.322V40H0.322037" fill="#007ACC"/>
<path d="M9.09204 20.07V21.7H14.292V36.5H17.982V21.7H23.182V20.1C23.182 19.2 23.182 18.47 23.142 18.45C23.142 18.42 19.972 18.41 16.122 18.41L9.12204 18.44V20.08L9.09204 20.07ZM32.462 18.4C33.482 18.64 34.262 19.1 34.962 19.83C35.332 20.23 35.882 20.93 35.922 21.11C35.922 21.17 34.192 22.34 33.142 22.99C33.102 23.02 32.942 22.85 32.782 22.59C32.262 21.85 31.732 21.53 30.902 21.47C29.702 21.39 28.902 22.02 28.902 23.07C28.902 23.39 28.962 23.57 29.082 23.83C29.352 24.38 29.852 24.71 31.402 25.39C34.262 26.62 35.502 27.43 36.252 28.59C37.102 29.89 37.292 31.93 36.722 33.46C36.082 35.13 34.522 36.26 32.292 36.63C31.592 36.75 29.992 36.73 29.242 36.6C27.642 36.3 26.112 35.5 25.172 34.47C24.802 34.07 24.092 33 24.132 32.93L24.512 32.69L26.012 31.82L27.142 31.16L27.402 31.51C27.732 32.03 28.472 32.73 28.902 32.97C30.202 33.64 31.942 33.55 32.802 32.77C33.172 32.43 33.332 32.07 33.332 31.57C33.332 31.11 33.262 30.9 33.032 30.55C32.712 30.11 32.072 29.75 30.272 28.95C28.202 28.07 27.322 27.51 26.502 26.65C26.032 26.13 25.602 25.32 25.402 24.65C25.252 24.07 25.202 22.65 25.342 22.08C25.772 20.08 27.282 18.68 29.442 18.28C30.142 18.14 31.792 18.2 32.482 18.38L32.462 18.4Z" fill="white"/>
</g>
<defs>
<clipPath id="clip0_128_711">
<rect width="40" height="40" fill="white" transform="translate(0.322037)"/>
</clipPath>
</defs>
</svg>
