<svg width="132" height="40" viewBox="0 0 132 40" fill="none" xmlns="http://www.w3.org/2000/svg">
<path d="M1.69034 30V14.7273H5.72727V17.4219H5.90625C6.22443 16.527 6.75474 15.821 7.49716 15.304C8.23958 14.7869 9.12784 14.5284 10.1619 14.5284C11.2093 14.5284 12.1009 14.7902 12.8366 15.3139C13.5724 15.831 14.063 16.5336 14.3082 17.4219H14.4673C14.7789 16.5469 15.3423 15.8475 16.1577 15.3239C16.9796 14.7936 17.9508 14.5284 19.071 14.5284C20.4962 14.5284 21.6529 14.9825 22.5412 15.8906C23.4361 16.7921 23.8835 18.0715 23.8835 19.7287V30H19.6577V20.5639C19.6577 19.7154 19.4323 19.0791 18.9815 18.6548C18.5308 18.2306 17.9673 18.0185 17.2912 18.0185C16.5223 18.0185 15.9223 18.2637 15.4915 18.7543C15.0606 19.2382 14.8452 19.8778 14.8452 20.6733V30H10.7386V20.4744C10.7386 19.7254 10.5232 19.1288 10.0923 18.6847C9.66809 18.2405 9.10796 18.0185 8.41193 18.0185C7.94129 18.0185 7.51705 18.1378 7.1392 18.3764C6.76799 18.6084 6.47301 18.9366 6.25426 19.3608C6.03551 19.7784 5.92614 20.2689 5.92614 20.8324V30H1.69034ZM34.9279 9.63636V30H30.6225V13.723H30.5032L25.8398 16.6463V12.8281L30.881 9.63636H34.9279ZM46.6882 36.0455C45.3161 36.0455 44.1394 35.8565 43.1584 35.4787C42.1839 35.1075 41.4084 34.6004 40.8317 33.9574C40.255 33.3144 39.8804 32.5919 39.7081 31.7898L43.6257 31.2628C43.745 31.5677 43.9339 31.8527 44.1925 32.1179C44.451 32.383 44.7924 32.5952 45.2166 32.7543C45.6475 32.92 46.1712 33.0028 46.7876 33.0028C47.709 33.0028 48.468 32.7775 49.0646 32.3267C49.6679 31.8826 49.9695 31.1368 49.9695 30.0895V27.2955H49.7905C49.6049 27.7197 49.3265 28.1207 48.9553 28.4986C48.584 28.8764 48.1068 29.1847 47.5234 29.4233C46.9401 29.6619 46.2441 29.7812 45.4354 29.7812C44.2886 29.7812 43.2446 29.5161 42.3033 28.9858C41.3686 28.4489 40.6229 27.6302 40.0661 26.5298C39.5159 25.4228 39.2408 24.0241 39.2408 22.3338C39.2408 20.6037 39.5225 19.1586 40.0859 17.9986C40.6494 16.8385 41.3984 15.9702 42.3331 15.3935C43.2744 14.8168 44.3052 14.5284 45.4254 14.5284C46.2805 14.5284 46.9964 14.6742 47.5732 14.9659C48.1499 15.2509 48.6139 15.6089 48.9652 16.0398C49.3232 16.464 49.5982 16.8816 49.7905 17.2926H49.9496V14.7273H54.1555V30.1491C54.1555 31.4484 53.8374 32.5355 53.201 33.4105C52.5646 34.2855 51.683 34.9418 50.5561 35.3793C49.4358 35.8234 48.1465 36.0455 46.6882 36.0455ZM46.7777 26.5994C47.4605 26.5994 48.0372 26.4304 48.5078 26.0923C48.9851 25.7476 49.3497 25.2571 49.6016 24.6207C49.8601 23.9777 49.9893 23.2088 49.9893 22.3139C49.9893 21.419 49.8634 20.6435 49.6115 19.9872C49.3596 19.3243 48.995 18.8106 48.5178 18.446C48.0405 18.0814 47.4605 17.8991 46.7777 17.8991C46.0817 17.8991 45.495 18.0881 45.0178 18.4659C44.5405 18.8371 44.1792 19.3542 43.9339 20.017C43.6887 20.6799 43.5661 21.4455 43.5661 22.3139C43.5661 23.1955 43.6887 23.9579 43.9339 24.6009C44.1858 25.2372 44.5471 25.7311 45.0178 26.0824C45.495 26.4271 46.0817 26.5994 46.7777 26.5994ZM67.3203 23.4972V14.7273H71.5561V30H67.4893V27.2259H67.3303C66.9856 28.1207 66.4122 28.84 65.6101 29.3835C64.8146 29.9271 63.8435 30.1989 62.6967 30.1989C61.6759 30.1989 60.7777 29.9669 60.0021 29.5028C59.2266 29.0388 58.62 28.3793 58.1825 27.5241C57.7517 26.669 57.5329 25.6449 57.5263 24.4517V14.7273H61.7621V23.696C61.7687 24.5975 62.0107 25.3101 62.4879 25.8338C62.9652 26.3575 63.6049 26.6193 64.407 26.6193C64.9174 26.6193 65.3947 26.5033 65.8388 26.2713C66.2829 26.0327 66.6409 25.6813 66.9126 25.2173C67.1911 24.7533 67.3269 24.1799 67.3203 23.4972ZM81.9045 30.2983C80.3335 30.2983 78.9812 29.9801 77.8477 29.3438C76.7208 28.7008 75.8524 27.7926 75.2425 26.6193C74.6327 25.4394 74.3278 24.044 74.3278 22.4332C74.3278 20.8622 74.6327 19.4834 75.2425 18.2969C75.8524 17.1103 76.7108 16.1856 77.8178 15.5227C78.9315 14.8598 80.2373 14.5284 81.7354 14.5284C82.743 14.5284 83.681 14.6908 84.5494 15.0156C85.4244 15.3338 86.1867 15.8144 86.8363 16.4574C87.4925 17.1004 88.003 17.9091 88.3675 18.8835C88.7321 19.8513 88.9144 20.9848 88.9144 22.2841V23.4474H76.0181V20.8224H84.9272C84.9272 20.2126 84.7946 19.6723 84.5295 19.2017C84.2643 18.7311 83.8964 18.3632 83.4258 18.098C82.9618 17.8262 82.4215 17.6903 81.805 17.6903C81.1621 17.6903 80.592 17.8395 80.0948 18.1378C79.6043 18.4295 79.2198 18.8239 78.9414 19.321C78.663 19.8116 78.5205 20.3584 78.5138 20.9616V23.4574C78.5138 24.2131 78.6531 24.866 78.9315 25.4162C79.2165 25.9664 79.6175 26.3906 80.1346 26.6889C80.6516 26.9872 81.2648 27.1364 81.9741 27.1364C82.4447 27.1364 82.8756 27.0701 83.2667 26.9375C83.6578 26.8049 83.9925 26.6061 84.271 26.3409C84.5494 26.0758 84.7615 25.7509 84.9073 25.3665L88.8249 25.625C88.6261 26.5663 88.2184 27.3883 87.6019 28.0909C86.9921 28.7869 86.2032 29.3305 85.2354 29.7216C84.2743 30.1061 83.1639 30.2983 81.9045 30.2983ZM95.9144 9.63636V30H91.6786V9.63636H95.9144Z" fill="#936DFF"/>
<path d="M112.015 19.0824L108.137 19.321C108.071 18.9896 107.928 18.6913 107.71 18.4261C107.491 18.1544 107.202 17.9389 106.844 17.7798C106.493 17.6141 106.072 17.5312 105.582 17.5312C104.925 17.5312 104.372 17.6705 103.921 17.9489C103.47 18.2206 103.245 18.5852 103.245 19.0426C103.245 19.4072 103.391 19.7154 103.683 19.9673C103.974 20.2192 104.475 20.4214 105.184 20.5739L107.948 21.1307C109.433 21.4356 110.54 21.9261 111.269 22.6023C111.998 23.2784 112.363 24.1667 112.363 25.267C112.363 26.268 112.068 27.1463 111.478 27.902C110.895 28.6577 110.093 29.2476 109.072 29.6719C108.058 30.0895 106.888 30.2983 105.562 30.2983C103.54 30.2983 101.929 29.8774 100.729 29.0355C99.5362 28.187 98.8369 27.0336 98.6314 25.5753L102.798 25.3565C102.924 25.973 103.228 26.4437 103.712 26.7685C104.196 27.0866 104.816 27.2457 105.572 27.2457C106.314 27.2457 106.911 27.1032 107.362 26.8182C107.819 26.5265 108.051 26.152 108.058 25.6946C108.051 25.3101 107.888 24.9953 107.57 24.75C107.252 24.4981 106.762 24.3059 106.099 24.1733L103.454 23.6463C101.962 23.348 100.852 22.831 100.123 22.0952C99.4003 21.3594 99.0391 20.4214 99.0391 19.2812C99.0391 18.3002 99.3042 17.455 99.8345 16.7457C100.371 16.0365 101.124 15.4896 102.092 15.1051C103.066 14.7206 104.206 14.5284 105.512 14.5284C107.441 14.5284 108.959 14.9361 110.066 15.7514C111.18 16.5668 111.829 17.6771 112.015 19.0824ZM115.11 30V9.63636H119.346V17.2926H119.475C119.66 16.8816 119.929 16.464 120.28 16.0398C120.638 15.6089 121.102 15.2509 121.672 14.9659C122.249 14.6742 122.965 14.5284 123.82 14.5284C124.934 14.5284 125.961 14.8201 126.902 15.4034C127.844 15.9801 128.596 16.8518 129.159 18.0185C129.723 19.1785 130.005 20.6335 130.005 22.3835C130.005 24.0871 129.73 25.5256 129.179 26.6989C128.636 27.8655 127.893 28.7505 126.952 29.3537C126.017 29.9503 124.97 30.2486 123.81 30.2486C122.988 30.2486 122.289 30.1127 121.712 29.8409C121.142 29.5691 120.675 29.2277 120.31 28.8168C119.945 28.3991 119.667 27.9782 119.475 27.554H119.286V30H115.11ZM119.256 22.3636C119.256 23.2718 119.382 24.0639 119.634 24.7401C119.886 25.4162 120.25 25.9432 120.728 26.321C121.205 26.6922 121.785 26.8778 122.468 26.8778C123.157 26.8778 123.74 26.6889 124.218 26.3111C124.695 25.9266 125.056 25.3963 125.301 24.7202C125.553 24.0374 125.679 23.2519 125.679 22.3636C125.679 21.482 125.557 20.7064 125.311 20.0369C125.066 19.3674 124.705 18.8437 124.228 18.4659C123.75 18.0881 123.164 17.8991 122.468 17.8991C121.778 17.8991 121.195 18.0814 120.718 18.446C120.247 18.8106 119.886 19.3277 119.634 19.9972C119.382 20.6667 119.256 21.4555 119.256 22.3636Z" fill="white"/>
</svg>
